<svg xmlns="http://www.w3.org/2000/svg" width="1200" height="630" viewBox="0 0 1200 630">
  <defs>
    <linearGradient id="bg" x1="0" y1="0" x2="1" y2="1">
      <stop offset="0%" stop-color="#000000"/>
      <stop offset="100%" stop-color="#0a0a0a"/>
    </linearGradient>
    <linearGradient id="border" x1="0" y1="0" x2="1" y2="0">
      <stop offset="0%" stop-color="#1a1a1a"/>
      <stop offset="100%" stop-color="#2a2a2a"/>
    </linearGradient>
  </defs>

  <!-- Background -->
  <rect width="1200" height="630" fill="url(#bg)"/>

  <!-- Subtle grid pattern -->
  <g opacity="0.03">
    <line x1="0" y1="0" x2="0" y2="630" stroke="#fff" stroke-width="1"/>
    <line x1="80" y1="0" x2="80" y2="630" stroke="#fff" stroke-width="1"/>
    <line x1="160" y1="0" x2="160" y2="630" stroke="#fff" stroke-width="1"/>
    <line x1="240" y1="0" x2="240" y2="630" stroke="#fff" stroke-width="1"/>
    <line x1="320" y1="0" x2="320" y2="630" stroke="#fff" stroke-width="1"/>
    <line x1="400" y1="0" x2="400" y2="630" stroke="#fff" stroke-width="1"/>
    <line x1="480" y1="0" x2="480" y2="630" stroke="#fff" stroke-width="1"/>
    <line x1="560" y1="0" x2="560" y2="630" stroke="#fff" stroke-width="1"/>
    <line x1="640" y1="0" x2="640" y2="630" stroke="#fff" stroke-width="1"/>
    <line x1="720" y1="0" x2="720" y2="630" stroke="#fff" stroke-width="1"/>
    <line x1="800" y1="0" x2="800" y2="630" stroke="#fff" stroke-width="1"/>
    <line x1="880" y1="0" x2="880" y2="630" stroke="#fff" stroke-width="1"/>
    <line x1="960" y1="0" x2="960" y2="630" stroke="#fff" stroke-width="1"/>
    <line x1="1040" y1="0" x2="1040" y2="630" stroke="#fff" stroke-width="1"/>
    <line x1="1120" y1="0" x2="1120" y2="630" stroke="#fff" stroke-width="1"/>
    <line x1="1200" y1="0" x2="1200" y2="630" stroke="#fff" stroke-width="1"/>
    <line x1="0" y1="0" x2="1200" y2="0" stroke="#fff" stroke-width="1"/>
    <line x1="0" y1="80" x2="1200" y2="80" stroke="#fff" stroke-width="1"/>
    <line x1="0" y1="160" x2="1200" y2="160" stroke="#fff" stroke-width="1"/>
    <line x1="0" y1="240" x2="1200" y2="240" stroke="#fff" stroke-width="1"/>
    <line x1="0" y1="320" x2="1200" y2="320" stroke="#fff" stroke-width="1"/>
    <line x1="0" y1="400" x2="1200" y2="400" stroke="#fff" stroke-width="1"/>
    <line x1="0" y1="480" x2="1200" y2="480" stroke="#fff" stroke-width="1"/>
    <line x1="0" y1="560" x2="1200" y2="560" stroke="#fff" stroke-width="1"/>
    <line x1="0" y1="630" x2="1200" y2="630" stroke="#fff" stroke-width="1"/>
  </g>

  <!-- Content card -->
  <rect x="80" y="80" width="1040" height="470" rx="16" fill="#080808" stroke="#1a1a1a" stroke-width="1"/>

  <!-- Left accent line -->
  <rect x="80" y="80" width="4" height="470" rx="2" fill="#f0f0f0" opacity="0.6"/>

  <!-- Profile circle -->
  <circle cx="180" cy="200" r="48" fill="#111111" stroke="#2a2a2a" stroke-width="1"/>
  <text x="180" y="208" font-family="system-ui, -apple-system, sans-serif" font-size="28" font-weight="600" fill="#f0f0f0" text-anchor="middle">NR</text>

  <!-- Name -->
  <text x="260" y="195" font-family="Inter, system-ui, sans-serif" font-size="36" font-weight="600" fill="#f0f0f0">Nitish R.G.</text>

  <!-- Role -->
  <text x="260" y="235" font-family="Inter, system-ui, sans-serif" font-size="18" fill="#999999">Software Engineering Student at IIT Madras</text>

  <!-- Divider -->
  <line x1="120" y1="280" x2="1080" y2="280" stroke="#1a1a1a" stroke-width="1"/>

  <!-- Skills row -->
  <g transform="translate(120, 310)">
    <rect x="0" y="0" width="120" height="32" rx="16" fill="#111111" stroke="#1a1a1a" stroke-width="1"/>
    <text x="60" y="21" font-family="Inter, system-ui, sans-serif" font-size="12" fill="#999999" text-anchor="middle">Python</text>

    <rect x="136" y="0" width="140" height="32" rx="16" fill="#111111" stroke="#1a1a1a" stroke-width="1"/>
    <text x="206" y="21" font-family="Inter, system-ui, sans-serif" font-size="12" fill="#999999" text-anchor="middle">Machine Learning</text>

    <rect x="292" y="0" width="130" height="32" rx="16" fill="#111111" stroke="#1a1a1a" stroke-width="1"/>
    <text x="357" y="21" font-family="Inter, system-ui, sans-serif" font-size="12" fill="#999999" text-anchor="middle">Full-Stack Dev</text>

    <rect x="438" y="0" width="100" height="32" rx="16" fill="#111111" stroke="#1a1a1a" stroke-width="1"/>
    <text x="488" y="21" font-family="Inter, system-ui, sans-serif" font-size="12" fill="#999999" text-anchor="middle">React + Vite</text>

    <rect x="554" y="0" width="100" height="32" rx="16" fill="#111111" stroke="#1a1a1a" stroke-width="1"/>
    <text x="604" y="21" font-family="Inter, system-ui, sans-serif" font-size="12" fill="#999999" text-anchor="middle">TypeScript</text>

    <rect x="670" y="0" width="90" height="32" rx="16" fill="#111111" stroke="#1a1a1a" stroke-width="1"/>
    <text x="715" y="21" font-family="Inter, system-ui, sans-serif" font-size="12" fill="#999999" text-anchor="middle">AWS</text>
  </g>

  <!-- Stats row -->
  <g transform="translate(120, 370)">
    <text x="0" y="0" font-family="Inter, system-ui, sans-serif" font-size="14" fill="#555555" letter-spacing="0.1em">RANKED #73 GLOBALLY · HACKERRANK 5-STAR GOLD · IIT MADRAS</text>
  </g>

  <!-- Bottom bar -->
  <line x1="120" y1="420" x2="1080" y2="420" stroke="#1a1a1a" stroke-width="1"/>

  <!-- URL -->
  <text x="120" y="460" font-family="Inter, system-ui, sans-serif" font-size="14" fill="#555555">nitish-r-g.github.io/Portfolio</text>

  <!-- GitHub icon hint -->
  <g transform="translate(1000, 440)" opacity="0.4">
    <svg width="24" height="24" viewBox="0 0 24 24" fill="none" xmlns="http://www.w3.org/2000/svg">
      <path d="M12 2C6.477 2 2 6.484 2 12.017c0 4.425 2.865 8.18 6.839 9.504.5.092.682-.217.682-.483 0-.237-.008-.868-.013-1.703-2.782.605-3.369-1.343-3.369-1.343-.454-1.158-1.11-1.466-1.11-1.466-.908-.62.069-.608.069-.608 1.003.07 1.531 1.032 1.531 1.032.892 1.53 2.341 1.088 2.91.832.092-.647.35-1.088.636-1.338-2.22-.253-4.555-1.113-4.555-4.951 0-1.093.39-1.988 1.029-2.688-.103-.253-.446-1.272.098-2.65 0 0 .84-.27 2.75 1.026A9.564 9.564 0 0112 6.844c.85.004 1.705.115 2.504.337 1.909-1.296 2.747-1.027 2.747-1.027.546 1.379.202 2.398.1 2.651.64.7 1.028 1.595 1.028 2.688 0 3.848-2.339 4.695-4.566 4.943.359.309.678.92.678 1.855 0 1.338-.012 2.419-.012 2.747 0 .268.18.58.688.482A10.019 10.019 0 0022 12.017C22 6.484 17.522 2 12 2z" fill="#999"/>
    </svg>
  </g>

  <!-- Corner accent dots -->
  <circle cx="1100" cy="120" r="3" fill="#f0f0f0" opacity="0.08"/>
  <circle cx="1120" cy="120" r="3" fill="#f0f0f0" opacity="0.05"/>
  <circle cx="1140" cy="120" r="3" fill="#f0f0f0" opacity="0.03"/>
</svg>
